<?xml version="1.0" encoding="UTF-8" standalone="no"?>
<!DOCTYPE svg PUBLIC "-//W3C//DTD SVG 1.1//EN" "http://www.w3.org/Graphics/SVG/1.1/DTD/svg11.dtd">
<svg version="1.1" xmlns="http://www.w3.org/2000/svg" xmlns:xlink="http://www.w3.org/1999/xlink" preserveAspectRatio="xMidYMid meet" viewBox="476.8990567349584 172.4285034455051 82.12149655449497 63.121496554494826" width="100" height="75.68"><defs><path d="M556.02 232.55L541.78 232.55L534.12 217.23L526.46 201.91L524.08 206.67L537.02 232.55L522.78 232.55L516.96 220.91L511.14 232.55L496.9 232.55L509.84 206.67L507.46 201.91L499.8 217.23L492.14 232.55L477.9 232.55L492.68 202.99L507.46 173.43L516.96 192.43L526.46 173.43L541.24 202.99L556.02 232.55Z" id="c59F6q2QNx"></path><path d="M536.96 232.55L522.6 232.55L521.1 229.55L512.82 229.55L511.32 232.55L496.96 232.55L506.96 212.55L516.96 192.55L526.96 212.55L536.96 232.55ZM518.6 224.55L516.96 221.28L515.32 224.55L518.6 224.55Z" id="bzHPl34UH"></path></defs><g><g><use xlink:href="#c59F6q2QNx" opacity="1" fill="#3eaf7c" fill-opacity="1"></use></g><g><use xlink:href="#bzHPl34UH" opacity="1" fill="#3b3b3b" fill-opacity="1"></use></g></g></svg>
